<svg xmlns="http://www.w3.org/2000/svg" viewBox="0 0 143.63 143.63"><defs><style>.cls-1{fill:none;}.cls-2{fill:#ec3237;}</style></defs><title>hot-dog</title><g id="Layer_2" data-name="Layer 2"><g id="Layer_1-2" data-name="Layer 1"><rect class="cls-1" width="143.63" height="143.63"/><path class="cls-2" d="M38.88,89.7h65.41a3,3,0,0,1,3,3v5.93a8.9,8.9,0,0,1-8.9,8.9H44.78a8.9,8.9,0,0,1-8.9-8.9V92.7A3,3,0,0,1,38.88,89.7Z"/><rect class="cls-2" x="17.59" y="62.93" width="108.15" height="17.76" rx="8.88"/><path class="cls-2" d="M44.81,35.61H98.35a8.93,8.93,0,0,1,8.93,8.93v6.09a3,3,0,0,1-3,3H38.88a3,3,0,0,1-3-3V44.55a8.93,8.93,0,0,1,8.93-8.93Z"/></g></g></svg>